<svg xmlns="http://www.w3.org/2000/svg" width="1000" height="650" viewBox="0 0 1000 650">
<rect width="100%" height="100%" fill="white"/>
<text x="500" y="40" text-anchor="middle" font-family="Arial" font-size="26" font-weight="bold">GPU Total Execution Time vs Dataset Size</text>
<line x1="100" y1="80" x2="100" y2="550" stroke="black" stroke-width="2"/>
<line x1="100" y1="550" x2="940" y2="550" stroke="black" stroke-width="2"/>
<text x="25" y="325" text-anchor="middle" font-family="Arial" font-size="18" transform="rotate(-90 25 325)">Time (ms)</text>
<line x1="100" y1="550" x2="940" y2="550" stroke="#dddddd"/>
<text x="85" y="556" text-anchor="end" font-family="Arial" font-size="14">0.00 ms</text>
<line x1="100" y1="456" x2="940" y2="456" stroke="#dddddd"/>
<text x="85" y="462" text-anchor="end" font-family="Arial" font-size="14">13.25 ms</text>
<line x1="100" y1="362" x2="940" y2="362" stroke="#dddddd"/>
<text x="85" y="368" text-anchor="end" font-family="Arial" font-size="14">26.51 ms</text>
<line x1="100" y1="268" x2="940" y2="268" stroke="#dddddd"/>
<text x="85" y="274" text-anchor="end" font-family="Arial" font-size="14">39.76 ms</text>
<line x1="100" y1="174" x2="940" y2="174" stroke="#dddddd"/>
<text x="85" y="180" text-anchor="end" font-family="Arial" font-size="14">53.01 ms</text>
<line x1="100" y1="80" x2="940" y2="80" stroke="#dddddd"/>
<text x="85" y="86" text-anchor="end" font-family="Arial" font-size="14">66.27 ms</text>
<polyline fill="none" stroke="#2563eb" stroke-width="4" points="100,542.331 310,527.381 520,506.85 730,319.448 940,141.304 "/>
<circle cx="100" cy="542.331" r="7" fill="#2563eb"/>
<text x="100" y="580" text-anchor="middle" font-family="Arial" font-size="15">1M</text>
<text x="100" y="527.331" text-anchor="middle" font-family="Arial" font-size="14">1.08 ms</text>
<circle cx="310" cy="527.381" r="7" fill="#2563eb"/>
<text x="310" y="580" text-anchor="middle" font-family="Arial" font-size="15">5M</text>
<text x="310" y="512.381" text-anchor="middle" font-family="Arial" font-size="14">3.19 ms</text>
<circle cx="520" cy="506.85" r="7" fill="#2563eb"/>
<text x="520" y="580" text-anchor="middle" font-family="Arial" font-size="15">10M</text>
<text x="520" y="491.85" text-anchor="middle" font-family="Arial" font-size="14">6.08 ms</text>
<circle cx="730" cy="319.448" r="7" fill="#2563eb"/>
<text x="730" y="580" text-anchor="middle" font-family="Arial" font-size="15">50M</text>
<text x="730" y="304.448" text-anchor="middle" font-family="Arial" font-size="14">32.51 ms</text>
<circle cx="940" cy="141.304" r="7" fill="#2563eb"/>
<text x="940" y="580" text-anchor="middle" font-family="Arial" font-size="15">100M</text>
<text x="940" y="126.304" text-anchor="middle" font-family="Arial" font-size="14">57.62 ms</text>
<text x="500" y="625" text-anchor="middle" font-family="Arial" font-size="18">Dataset Size (Million Elements)</text>
</svg>
