<svg xmlns="http://www.w3.org/2000/svg" width="1000" height="650" viewBox="0 0 1000 650">
<rect width="100%" height="100%" fill="white"/>
<text x="500" y="40" text-anchor="middle" font-family="Arial" font-size="26" font-weight="bold">GPU Total Speedup vs Dataset Size</text>
<line x1="100" y1="80" x2="100" y2="550" stroke="black" stroke-width="2"/>
<line x1="100" y1="550" x2="940" y2="550" stroke="black" stroke-width="2"/>
<text x="25" y="325" text-anchor="middle" font-family="Arial" font-size="18" transform="rotate(-90 25 325)">Speedup</text>
<line x1="100" y1="550" x2="940" y2="550" stroke="#dddddd"/>
<text x="85" y="556" text-anchor="end" font-family="Arial" font-size="14">0.00x</text>
<line x1="100" y1="456" x2="940" y2="456" stroke="#dddddd"/>
<text x="85" y="462" text-anchor="end" font-family="Arial" font-size="14">0.76x</text>
<line x1="100" y1="362" x2="940" y2="362" stroke="#dddddd"/>
<text x="85" y="368" text-anchor="end" font-family="Arial" font-size="14">1.52x</text>
<line x1="100" y1="268" x2="940" y2="268" stroke="#dddddd"/>
<text x="85" y="274" text-anchor="end" font-family="Arial" font-size="14">2.28x</text>
<line x1="100" y1="174" x2="940" y2="174" stroke="#dddddd"/>
<text x="85" y="180" text-anchor="end" font-family="Arial" font-size="14">3.04x</text>
<line x1="100" y1="80" x2="940" y2="80" stroke="#dddddd"/>
<text x="85" y="86" text-anchor="end" font-family="Arial" font-size="14">3.79x</text>
<polyline fill="none" stroke="#2563eb" stroke-width="4" points="100,323.36 310,162.358 520,149.974 730,185.889 940,141.304 "/>
<circle cx="100" cy="323.36" r="7" fill="#2563eb"/>
<text x="100" y="580" text-anchor="middle" font-family="Arial" font-size="15">1M</text>
<text x="100" y="308.36" text-anchor="middle" font-family="Arial" font-size="14">1.83x</text>
<circle cx="310" cy="162.358" r="7" fill="#2563eb"/>
<text x="310" y="580" text-anchor="middle" font-family="Arial" font-size="15">5M</text>
<text x="310" y="147.358" text-anchor="middle" font-family="Arial" font-size="14">3.13x</text>
<circle cx="520" cy="149.974" r="7" fill="#2563eb"/>
<text x="520" y="580" text-anchor="middle" font-family="Arial" font-size="15">10M</text>
<text x="520" y="134.974" text-anchor="middle" font-family="Arial" font-size="14">3.23x</text>
<circle cx="730" cy="185.889" r="7" fill="#2563eb"/>
<text x="730" y="580" text-anchor="middle" font-family="Arial" font-size="15">50M</text>
<text x="730" y="170.889" text-anchor="middle" font-family="Arial" font-size="14">2.94x</text>
<circle cx="940" cy="141.304" r="7" fill="#2563eb"/>
<text x="940" y="580" text-anchor="middle" font-family="Arial" font-size="15">100M</text>
<text x="940" y="126.304" text-anchor="middle" font-family="Arial" font-size="14">3.30x</text>
<text x="500" y="625" text-anchor="middle" font-family="Arial" font-size="18">Dataset Size (Million Elements)</text>
</svg>
